<?xml version="1.0" encoding="utf-8"?>
<!-- Generator: Adobe Illustrator 27.1.1, SVG Export Plug-In . SVG Version: 6.00 Build 0)  -->
<svg version="1.1" id="레이어_1" xmlns="http://www.w3.org/2000/svg" xmlns:xlink="http://www.w3.org/1999/xlink" x="0px"
	 y="0px" viewBox="0 0 1100 1100" style="enable-background:new 0 0 1100 1100;" xml:space="preserve">
<style type="text/css">
	.st0{fill:none;}
</style>
<g transform="translate(0.000000,1280.000000) scale(0.100000,-0.100000)">
	<path class="st0" d="M6878.5,12793.3c-311.5-66.1-622.9-341.9-867.6-769.7c-434.7-761.2-651.2-1946.5-610.7-3357.4
		c4.7-184.2,12.2-361.7,15.1-393.8c3.8-41.6,2.8-59.5-4.7-59.5c-5.6,0-10.4,9.4-10.4,21.7c0,82.2-123.3,763.1-192.9,1071
		c-376.4,1645.2-1090.6,2817.2-1872.5,3072.2c-80,26.4-112,31.2-211.7,34.9c-87.5,3.8-133.6,0.9-180.7-10.4
		c-166.6-38.7-314.3-160.6-396.2-326.8c-273.8-555.3-10.4-1506.4,692.6-2493.3c328.4-461.8,731.1-918,1192.2-1354.3
		c111-104.8,228.7-214.4,260.7-242.7c56.5-50.1,68.7-65.2,50.8-65.2c-4.7,0-88.5,57.6-186.3,128.4
		c-1233.6,896.3-2387.3,1405.3-3301.9,1457.2c-593.8,33.2-1034.2-133-1192.3-450.3c-138.3-277.7-43.3-600.7,265.4-908.5
		c162.8-162.4,364.2-298.4,636.1-430.7c336.9-163.4,705.7-282.4,1152.7-371.2c328.4-65.2,569.3-95.4,1072.7-135.1
		c162.8-12.3,1081.2-16.1,1193.2-3.8c55.5,5.7,67.8,4.7,67.8-6.6c0-9.4-28.2-17.9-105.4-29.3c-182.5-28.3-558-98.2-759.4-142.6
		c-1451-320.2-2539.7-886.8-2998-1563c-66.8-98.2-147.7-264.4-174.1-358.9c-29.2-101.1-35.8-259.7-15.1-353.2
		c80.9-361.7,471.4-559.1,1004-506.2c661.5,65.2,1488.6,484.5,2304.5,1166.4c270.1,225.7,391.4,339,732.1,681.9
		c187.3,188.9,337.8,333.4,345.3,331.5c9.4-1.9-22.6-54.8-99.7-163.4c-723.6-1022.8-1156.5-1917.2-1325.8-2738.8
		c-76.2-366.4-85.6-749.9-27.3-1021.9c80.9-375.9,273.8-620.5,544.8-688.5c128-32.1,308.6-5.7,454.5,68
		c199.5,101.1,402.7,297.5,576.8,561c319.9,481.7,543.9,1208.9,642.7,2082.5c43.3,380.6,51.8,560,52.7,1111.6
		c0,400.4,2.8,527.9,11.3,530.8c14.1,5.7,16.9-3.8,39.5-145.4c273.8-1716,889.2-3062.8,1649.5-3609.6
		c325.6-235.2,657.7-292.8,901.5-156.8c319.9,178.5,435.7,640.3,305.8,1220.2C8312.5,4359.6,7603,5407,6503,6440.2
		c-117.6,110.5-177.8,173.8-172.2,179.4c5.6,5.7,66.8-32.1,172.2-107.7c1097.2-788.6,2113.4-1261.7,2985.7-1391.1
		c511-75.6,953.2-10.4,1235.5,181.3c120.4,82.2,226.8,227.6,260.7,357c21.6,78.4,19.8,217.2-3.8,306.9
		c-43.3,167.2-135.5,314.5-302.1,480.7c-171.3,171.9-353.8,298.4-616.3,428.8C9246.9,7279.8,8027.4,7463,6607.5,7394
		c-86.6-3.8-125.1-2.8-125.1,4.7c0,5.7,24.5,13.2,54.6,16.1c29.2,3.8,163.7,25.5,298.3,48.2
		c1369.1,230.4,2431.5,635.6,3117.5,1188.1c519.4,417.4,761.2,901.9,632.3,1267.4c-48,138.8-168.4,268.2-314.3,339
		c-482.7,236.1-1270.3,68-2122.8-451.4c-643.6-392.9-1330.5-988.8-2023.1-1756.6c-68.7-76.5-52.7-41.6,34.8,75.6
		c878.9,1170.1,1419,2314.8,1532.9,3245c20.7,170.9,21.6,468.4,0.9,611c-61.2,422.2-240.9,695.1-521.3,794.3
		C7109.9,12798,6946.2,12807.5,6878.5,12793.3z"/>
</g>
</svg>
