<?xml version="1.0" encoding="utf-8"?>
<!-- Generator: Adobe Illustrator 27.1.1, SVG Export Plug-In . SVG Version: 6.00 Build 0)  -->
<svg version="1.1" id="레이어_1" xmlns="http://www.w3.org/2000/svg" xmlns:xlink="http://www.w3.org/1999/xlink" x="0px"
	 y="0px" viewBox="0 0 500 500" style="enable-background:new 0 0 500 500;" xml:space="preserve">
<style type="text/css">
	.st0{fill:#FFFFFF;}
</style>
<g>
	<path d="M498.7,188.1c11.5,79.9-52.9,174.2-253.9,212.6C111.9,426.1,0,381.9,0,291.3S63.7,119.3,244.8,97.7
		C381.6,81.4,485.7,98.4,498.7,188.1z"/>
	<g>
		<path class="st0" d="M133.4,199.2c-21.6,0-40.9,13.7-48.1,34l9.5,3.3c5.8-16.3,21.3-27.3,38.7-27.3c20.9,0,38.2,15.7,40.7,36H90
			v10h84.1c-2.5,20.3-19.8,36-40.7,36c-16.4,0-31.2-9.7-37.7-24.8l-9.2,4c8.1,18.8,26.5,30.9,46.9,30.9c28.1,0,51-22.9,51-51
			S161.5,199.2,133.4,199.2z"/>
		<g>
			<path class="st0" d="M251.2,301.3c-28.1,0-51-22.9-51-51s22.9-51,51-51c20.4,0,38.8,12.1,46.9,30.9l-9.2,4
				c-6.5-15.1-21.3-24.8-37.7-24.8c-22.6,0-41,18.4-41,41s18.4,41,41,41c17.1,0,32.4-10.6,38.4-26.5v-9.4h-39.7v-10h49.7v21.2
				l-0.3,0.8C292.1,287.6,272.8,301.3,251.2,301.3z"/>
		</g>
		<g>
			<path class="st0" d="M366.3,301.3c-28.1,0-51-22.9-51-51s22.9-51,51-51c20.4,0,38.8,12.1,46.9,30.9l-9.2,4
				c-6.5-15.1-21.3-24.8-37.7-24.8c-22.6,0-41,18.4-41,41s18.4,41,41,41c17.1,0,32.4-10.6,38.4-26.5v-9.4H365v-10h49.7v21.2
				l-0.3,0.8C407.3,287.6,387.9,301.3,366.3,301.3z"/>
		</g>
	</g>
</g>
</svg>
