<?xml version="1.0" encoding="utf-8"?>
<!-- Generator: Adobe Illustrator 27.1.1, SVG Export Plug-In . SVG Version: 6.00 Build 0)  -->
<svg version="1.1" id="레이어_1" xmlns="http://www.w3.org/2000/svg" xmlns:xlink="http://www.w3.org/1999/xlink" x="0px"
	 y="0px" viewBox="0 0 500 475" style="enable-background:new 0 0 500 475;" xml:space="preserve">
<style type="text/css">
	.st0{fill:none;stroke:#000000;stroke-width:2.5;stroke-miterlimit:10;}
</style>
<path class="st0" d="M250.6,111.7L325.9,2.1c0.4-0.6,1.4-0.3,1.4,0.4l-3.7,132.9c0,0.5,0.5,0.9,1,0.7l127.8-45.4L369.6,198
	c-0.3,0.4-0.1,1,0.4,1.2l127.6,37.6c0.7,0.2,0.7,1.2,0,1.4l-127.6,37.6c-0.5,0.1-0.7,0.8-0.4,1.2l81.2,105.3
	c0.5,0.6-0.1,1.4-0.8,1.2l-125.4-44.6c-0.5-0.2-1,0.2-1,0.7l3.7,132.9c0,0.7-0.9,1.1-1.4,0.4l-75.3-109.6c-0.3-0.4-0.9-0.4-1.2,0
	l-75.3,109.6c-0.4,0.6-1.4,0.3-1.4-0.4l3.7-132.9c0-0.5-0.5-0.9-1-0.7L50.1,383.5c-0.7,0.2-1.3-0.6-0.8-1.2L130.4,277
	c0.3-0.4,0.1-1-0.4-1.2L2.4,238.2c-0.7-0.2-0.7-1.2,0-1.4l127.6-37.6c0.5-0.1,0.7-0.8,0.4-1.2L49.2,92.7c-0.5-0.6,0.1-1.4,0.8-1.2
	l125.4,44.6c0.5,0.2,1-0.2,1-0.7L172.8,2.5c0-0.7,0.9-1.1,1.4-0.4l75.3,109.6C249.7,112.1,250.3,112.1,250.6,111.7z"/>
</svg>
